<svg xmlns="http://www.w3.org/2000/svg" width="57.268" height="57.268" viewBox="0 0 57.268 57.268"><defs><style>.a{fill:#c3c3c3;}.b{fill:none;}</style></defs><g transform="translate(-761.5 -1003.732)"><path class="a" d="M-14.916-10.008a9.133,9.133,0,0,1-2.52,2.46,4.544,4.544,0,0,1,.456.72,11.734,11.734,0,0,0,2.9-2.856Zm.2,2.628a10.8,10.8,0,0,1-2.9,3.24,5.8,5.8,0,0,1,.48.876,11.778,11.778,0,0,0,1.38-1.32v5.5h.864V-5.6a10.232,10.232,0,0,0,.96-1.464ZM-13-2.448a9.557,9.557,0,0,1,1.4,2.1l.756-.444a10.117,10.117,0,0,0-1.44-2.064Zm6.5-2.88v-.828h-3.36V-7.68h2.736V-8.5H-9.852V-9.984h-.876V-8.5h-2.628v.816h2.628v1.524h-3.324v.828H-9.06v1.32h-4.86v.816h4.86V-.168c0,.168-.048.216-.252.228-.18.012-.84.012-1.56-.012A3.4,3.4,0,0,1-10.584.9,6.426,6.426,0,0,0-8.664.756c.372-.144.48-.384.48-.924V-3.192h1.608v-.816H-8.184v-1.32Zm4.08.4v3.54h-1.32v-3.54Zm.756,4.344V-5.724H-3.744A20.706,20.706,0,0,0-3.012-8.58h1.728v-.828h-4v.828h1.428a11.648,11.648,0,0,1-1.68,4.644,5.641,5.641,0,0,1,.408.948A6.436,6.436,0,0,0-4.5-3.96V.372h.768v-.96ZM2.52-2.76V-4.188H4.236V-2.76Zm-2.4,0c.024-.36.036-.732.036-1.068v-.36h1.56V-2.76ZM2.832-8.292A8.733,8.733,0,0,1,1.956-7H-.1A10.656,10.656,0,0,0,.7-8.292ZM.156-6.228h1.56v1.32H.156Zm4.08,1.32H2.52v-1.32H4.236ZM5.088-7H2.9a10.052,10.052,0,0,0,1.14-1.7L3.48-9.084l-.132.036H1.068c.12-.276.228-.54.336-.828l-.78-.2A9.326,9.326,0,0,1-1.812-6.312a4.418,4.418,0,0,1,.54.672c.2-.192.4-.4.6-.624v2.436a5.969,5.969,0,0,1-1.3,4.26,2.971,2.971,0,0,1,.684.5A5.394,5.394,0,0,0,.024-1.98H1.716V.48h.8V-1.98H4.236V-.168c0,.156-.048.2-.192.2S3.432.048,2.916.024a2.819,2.819,0,0,1,.228.792A4.218,4.218,0,0,0,4.692.672c.3-.132.4-.36.4-.828Zm5.076-1.128C9.768-8.556,8.94-9.288,8.34-9.8l-.6.552c.588.54,1.4,1.32,1.8,1.776ZM9.48-1.38V-6.288H6.6v.852H8.616v4.092A1.472,1.472,0,0,1,7.968-.2a2.524,2.524,0,0,1,.48.648A18.7,18.7,0,0,1,11.232-1.62a4.166,4.166,0,0,1-.276-.744Zm3.984-8.652C13.44-5.988,13.5-1.8,10.476.3a2.909,2.909,0,0,1,.684.636,7.475,7.475,0,0,0,2.784-4.872A8.32,8.32,0,0,0,16.92.912a2.65,2.65,0,0,1,.66-.66C14.964-1.4,14.424-5.208,14.256-6.36c.084-1.2.084-2.436.1-3.672Z" transform="translate(786.16 1036.875) rotate(30)"/><g transform="translate(140.519 -223.536)"><path class="b" d="M28.634,0A28.634,28.634,0,1,1,0,28.634,28.634,28.634,0,0,1,28.634,0Z" transform="translate(620.981 1227.268)"/><path class="a" d="M28.634,1.735a26.906,26.906,0,0,0-10.47,51.684A26.906,26.906,0,0,0,39.1,3.848a26.728,26.728,0,0,0-10.47-2.113m0-1.735A28.634,28.634,0,1,1,0,28.634,28.634,28.634,0,0,1,28.634,0Z" transform="translate(620.981 1227.268)"/><path class="b" d="M24.3,0A24.3,24.3,0,1,1,0,24.3,24.3,24.3,0,0,1,24.3,0Z" transform="translate(625.319 1231.606)"/><path class="a" d="M24.3.868a23.434,23.434,0,0,0-9.119,45.015A23.434,23.434,0,0,0,33.414,2.708,23.28,23.28,0,0,0,24.3.868M24.3,0A24.3,24.3,0,1,1,0,24.3,24.3,24.3,0,0,1,24.3,0Z" transform="translate(625.319 1231.606)"/></g></g></svg>